<svg id="Layer_1" data-name="Layer 1" xmlns="http://www.w3.org/2000/svg" viewBox="0 0 139.62 139.8"><defs><style>.cls-1{fill:#92a3d3;}</style></defs><title>image2</title><path class="cls-1" d="M163.88,212.9a69.53,69.53,0,0,1-69.69-70.05c.09-38.6,31.7-70,70.18-69.75a69.9,69.9,0,0,1-.49,139.8Zm37.76-69.64a37.64,37.64,0,1,0-37.57,37.43A37.51,37.51,0,0,0,201.64,143.26Zm-37.86,46.43a6.57,6.57,0,1,0,.59,13.13c3.9-.39,6-2.74,6.09-6.6A6.41,6.41,0,0,0,163.78,189.69Zm-53-53.17a6.58,6.58,0,0,0-6.46,6.78c.28,3.85,2.56,6,6.39,6.33a6.53,6.53,0,0,0,6.72-6.5A6.62,6.62,0,0,0,110.76,136.52Zm22.29,44.07a6.7,6.7,0,0,0-6.81-6.48,6.43,6.43,0,0,0-6.32,6.87c.28,3.94,2.64,6,6.46,6.2A6.58,6.58,0,0,0,133.05,180.59Zm37.42-91.33c-.21-3.18-2.24-5.44-6.13-5.76a6.47,6.47,0,0,0-7,6.23,6.85,6.85,0,0,0,6.46,6.9C167.41,96.73,170.4,93.74,170.47,89.26Zm-37.42,16.39a6.84,6.84,0,0,0-6.58-6.77,6.57,6.57,0,0,0-6.6,6.67c.22,3.82,2.31,6.14,6.24,6.38A6.59,6.59,0,0,0,133.05,105.65Zm90.62,37.46a6.55,6.55,0,0,0-6.65-6.59c-3.57,0-6.78,3.27-6.47,6.78.35,3.81,2.6,6.07,6.43,6.34A6.5,6.5,0,0,0,223.67,143.11ZM201.4,112a6.64,6.64,0,0,0,6.86-6.4c0-3.49-3.19-6.83-6.7-6.62-3.81.22-6.14,2.38-6.51,6.23A6.33,6.33,0,0,0,201.4,112Zm.32,62.13a6.55,6.55,0,0,0-6.66,6.59c.13,3.91,2.35,6.11,6.19,6.43a6.51,6.51,0,0,0,7-6.21A6.79,6.79,0,0,0,201.72,174.08Z" transform="translate(-94.19 -73.1)"/><path class="cls-1" d="M193.32,143.22a29.33,29.33,0,1,1-29.43-29.5A29.42,29.42,0,0,1,193.32,143.22Z" transform="translate(-94.19 -73.1)"/></svg>